<svg xmlns="http://www.w3.org/2000/svg">
  <symbol id="menu" viewBox="0 0 18 12" fill="none">
    <path d="M1 12h16c.55 0 1-.45 1-1s-.45-1-1-1H1c-.55 0-1 .45-1 1s.45 1 1 1Zm0-5h16c.55 0 1-.45 1-1s-.45-1-1-1H1c-.55 0-1 .45-1 1s.45 1 1 1ZM0 1c0 .55.45 1 1 1h16c.55 0 1-.45 1-1s-.45-1-1-1H1C.45 0 0 .45 0 1Z" fill="currentColor"/>
  </symbol>
  <symbol id="search" viewBox="0 0 30 30">
    <path d="M13 3C7.489 3 3 7.489 3 13s4.489 10 10 10a9.947 9.947 0 0 0 6.322-2.264l5.971 5.971a1 1 0 1 0 1.414-1.414l-5.97-5.97A9.947 9.947 0 0 0 23 13c0-5.511-4.489-10-10-10zm0 2c4.43 0 8 3.57 8 8s-3.57 8-8 8-8-3.57-8-8 3.57-8 8-8z" fill="currentColor" />
  </symbol>
  <symbol id="close" viewBox="0 0 11 10" fill="none">
    <path d="m9.5 1-8 8M1.5 1l8 8" stroke="currentColor" stroke-width="2" stroke-linecap="round" stroke-linejoin="round"/>
  </symbol>
</svg>
